<?xml version="1.0" standalone="no"?><!DOCTYPE svg PUBLIC "-//W3C//DTD SVG 1.1//EN" "http://www.w3.org/Graphics/SVG/1.1/DTD/svg11.dtd"><svg t="1696902857196" class="icon" viewBox="0 0 1111 1024" version="1.1" xmlns="http://www.w3.org/2000/svg" p-id="7953" xmlns:xlink="http://www.w3.org/1999/xlink" width="216.9921875" height="200"><path d="M20.60253 630.766496c2.258051 0.673915 4.75241 0.90147 7.019214 0.90147a28.190632 28.190632 0 0 0 24.217162-14.108445c106.399726-188.416 217.324308-201.159111 343.871453-202.069333V528.366496a27.919316 27.919316 0 0 0 15.167453 24.803555 27.814291 27.814291 0 0 0 28.750769-2.048l345.910701-249.856a27.971829 27.971829 0 0 0 11.544068-22.755555c0-9.102222-4.306051-17.521778-11.55282-22.755556L439.637333 7.264274c-8.375795-6.144-19.464752-6.826667-28.750769-2.048a27.718017 27.718017 0 0 0-14.939897 24.803555v114.688c-158.921299 13.653333-271.885128 76.003556-335.495658 185.457778C6.336547 422.999521 0 530.860855 0 603.906188c0 12.515556 8.60335 23.665778 20.60253 26.851556zM424.916239 198.620991c14.712342-0.682667 26.25641-12.970667 26.256411-27.761777v-86.471111l270.528547 194.56-270.528547 195.242666v-86.471111a28.356923 28.356923 0 0 0-8.14824-19.797333 27.665504 27.665504 0 0 0-19.692307-8.192c-121.794735 0-246.985299 0-361.988377 143.587555 19.928615-143.815111 96.448547-291.271111 363.563761-304.696889z m489.42824 108.316445c-15.395009 0-27.840547-12.515556-28.068103-27.989333a27.89306 27.89306 0 0 1 27.840547-27.989334h169.108786a27.89306 27.89306 0 0 1 27.840547 27.989334v716.8a27.89306 27.89306 0 0 1-27.840547 27.989333h-839.417435a27.89306 27.89306 0 0 1-27.840548-27.989333V567.497299c0-15.246222 12.226735-27.989333 27.612992-27.989333a27.89306 27.89306 0 0 1 27.849299 27.989333v400.270222h784.173949V306.946188h-141.259487z" fill="#409eff" p-id="7954"></path></svg>